<?xml version="1.0" encoding="utf-8"?>
<!-- Generator: Adobe Illustrator 16.0.4, SVG Export Plug-In . SVG Version: 6.00 Build 0)  -->
<!DOCTYPE svg PUBLIC "-//W3C//DTD SVG 1.1//EN" "http://www.w3.org/Graphics/SVG/1.1/DTD/svg11.dtd">
<svg version="1.1" id="Layer_1" xmlns="http://www.w3.org/2000/svg" xmlns:xlink="http://www.w3.org/1999/xlink" x="0px" y="0px"
	 width="553.061px" height="241.334px" viewBox="0 0 553.061 241.334" enable-background="new 0 0 553.061 241.334"
	 xml:space="preserve">
<g>
	<path fill-rule="evenodd" clip-rule="evenodd" fill="#DD4401" d="M173.795,0.955c-5.792,3.875-10.95,7.32-15.154,11.999
		c-8.967,9.979-9.898,21.564-2.505,32.672c2.381,3.578,4.838,7.109,7.119,10.751c7.46,11.912,6.897,24.9-1.508,36.154
		c-1.746,2.337-3.313,4.817-5.46,6.83c0.537,0.86,1.36,0.518,2.021,0.559c6.94,0.424,13.89,0.705,20.821,1.242
		c2.729,0.211,3.409-0.801,3.458-3.366c0.467-24.701,1.019-49.401,1.601-74.101c0.153-6.494,0.547-12.982,0.721-19.477
		c0.066-2.471,0.782-3.434,3.449-2.699c12.906,3.56,25.812,7.102,36.454,15.833c7.684,6.303,13.181,14.112,14.605,24.085
		c1.734,12.152-3.788,21.443-12.751,29.018c-6.487,5.482-14.356,8.28-22.242,10.941c-1.853,0.625-2.612,1.386-2.598,3.408
		c0.033,4.755-0.167,9.514-0.353,14.269c-0.069,1.759,0.354,2.599,2.379,2.662c9.509,0.296,19.014,0.726,28.517,1.182
		c1.792,0.085,2.597-0.635,3.118-2.293c5.692-18.152,11.408-36.296,17.196-54.417c2.498-7.821,5.443-15.509,7.669-23.402
		c1.243-4.406,3.182-8.464,4.79-12.687c0.366-0.96,0.691-1.879,1.889-2.118c1.319-0.263,1.806,0.759,2.346,1.533
		c1.691,2.422,2.544,5.25,3.523,7.987c7.396,20.667,13.874,41.629,19.975,62.71c1.932,6.678,3.879,13.351,5.764,20.042
		c0.828,2.939,1.067,5.799-2.071,7.706c-0.461,0.28-0.947,0.737-1.425,0.74c-4.021,0.03-8.125,0.449-12.036-0.224
		c-2.619-0.451-5.172-0.364-7.742-0.488c-1.128-0.054-2.133,0.062-2.238-1.251c-0.106-1.322,1.018-1.608,2.065-1.667
		c1.276-0.072,2.571-0.133,3.84-0.013c2.415,0.23,3.087-0.566,2.281-2.946c-1.983-5.863-3.755-11.797-5.709-17.669
		c-2.223-6.675-3.931-13.524-6.663-20.024c-0.344-0.818-0.114-2.425-1.45-2.281c-1.039,0.112-1.13,1.548-1.414,2.468
		c-2.315,7.519-4.396,15.116-6.924,22.562c-1.549,4.561-2.716,9.213-4.14,13.798c-0.659,2.123,0.052,2.827,2.099,2.917
		c3.197,0.14,6.387,0.54,9.583,0.578c2.57,0.031,2.195,2.25,2.464,3.48c0.205,0.937-1.299,0.856-2.129,0.269
		c-1.903-1.348-4.088-1.989-6.299-2.566c-0.996-0.259-1.935-0.177-2.018,1.102c-0.132,2.03-1.546,1.987-2.952,1.938
		c-8.677-0.301-17.353-0.622-26.029-0.94c-4.373-0.161-8.836,0.181-13.097-0.234c-5.661-0.551-11.299-0.55-16.943-0.785
		c-17.278-0.718-34.56-1.32-51.84-1.991c-39.038-1.515-78.077-3.017-117.112-4.587c-9.492-0.382-18.973-1.021-28.46-1.502
		c-1.329-0.067-2.364-0.18-2.271-1.921c0.086-1.629,0.832-2.204,2.444-2.184c22.049,0.265,44.067,1.49,66.104,2.172
		c12.162,0.376,24.322,0.812,36.481,1.277c7.131,0.273,14.257,0.662,21.386,0.983c1.272,0.058,2.572,0.216,3.732-0.55
		c8.594-5.672,15.074-12.985,17.871-23.127c1.807-6.553-0.431-12.233-3.879-17.652c-3.044-4.784-6.181-9.517-9.034-14.413
		c-4.741-8.135-4.708-16.651-0.845-25.011c2.853-6.174,7.068-11.44,12.475-15.737c2.207-1.754,4.385-2.636,7.237-2.478
		C160.331,0.371,166.719,0.072,173.795,0.955z M201.857,20.935c0,15.645,0,31.044,0,46.5c10.498-3.616,18.943-14.342,18.723-23.625
		C220.333,33.457,213.082,24.438,201.857,20.935z"/>
	<path fill-rule="evenodd" clip-rule="evenodd" fill="#DD4401" d="M287.682,174.375c0,2.895-0.021,5.791,0.003,8.686
		c0.126,15.554,0.273,31.108,0.388,46.663c0.025,3.559-0.023,3.613-3.668,3.537c-4.207-0.087-8.413-0.43-12.615-0.371
		c-2.249,0.031-2.846-0.864-2.878-2.883c-0.142-8.782-0.401-17.562-0.551-26.344c-0.356-20.95-0.682-41.899-1.003-62.849
		c-0.064-4.206-0.07-8.413-0.062-12.618c0.001-0.676-0.396-1.659,0.492-1.943c0.812-0.259,1.206,0.669,1.671,1.197
		c10.28,11.667,20.526,23.364,30.854,34.989c1.299,1.461,3.012,2.555,4.602,3.876c0-2.487,0.044-5.187-0.008-7.884
		c-0.143-7.317-0.264-14.634-0.525-21.946c-0.085-2.351,0.486-3.077,3.068-3.007c13.711,0.369,27.432,0.382,41.145,0.698
		c11.25,0.259,22.493,0.788,33.741,1.14c1.452,0.046,2.178,0.418,2.19,2.014c0.028,3.383,0.133,6.769,0.336,10.146
		c0.113,1.881-0.488,2.608-2.461,2.552c-3.748-0.107-7.507,0.126-11.254,0.01c-2.018-0.063-2.85,0.595-2.758,2.628
		c0.154,3.472,0.156,6.951,0.297,10.425c0.92,22.762,1.927,45.522,2.357,68.302c0.07,3.644,0.061,3.683-3.509,3.676
		c-4.026-0.007-8.052-0.165-12.076-0.117c-2.09,0.025-2.952-0.825-3.059-2.886c-0.862-16.626-1.804-33.248-2.659-49.875
		c-0.527-10.229-0.99-20.463-1.386-30.699c-0.093-2.384-1.147-3.116-3.409-3.104c-5.582,0.033-11.163-0.144-16.744-0.176
		c-3.521-0.021-3.647,0.122-3.544,3.783c0.3,10.608,0.766,21.214,0.925,31.825c0.232,15.64,1.011,31.271,0.734,46.921
		c-0.045,2.643-0.912,3.613-3.477,3.518c-4.662-0.173-9.33-0.301-13.994-0.261c-2.41,0.021-3.161-0.956-3.15-3.276
		c0.055-11.345,0.005-22.689-0.035-34.035c-0.028-7.765-0.062-7.748-5.939-12.834c-3.724-3.222-7.398-6.501-11.094-9.755
		C288.312,174.191,287.996,174.283,287.682,174.375z"/>
	<path fill-rule="evenodd" clip-rule="evenodd" fill="#DD4401" d="M377.302,108.496c-1.424-2.59-3.27-4.512-5.062-6.409
		c-3.603-3.812-5.124-8.386-5.375-13.457c-0.389-7.858-0.735-15.719-0.925-23.583c-0.047-1.953-0.754-2.508-2.532-2.58
		c-3.197-0.128-6.388-0.415-9.581-0.647c-0.525-0.038-1.148,0.21-1.547-0.293c-3.031-3.837-6.926-6.93-9.953-11.24
		c3.908-0.39,7.434,0.042,10.96,0.137c3.657,0.099,7.317,0.137,10.976,0.241c1.205,0.035,1.682-0.326,1.848-1.664
		c0.185-1.488-0.031-2.914-0.058-4.364c-0.187-9.972-0.35-19.944-0.645-29.913c-0.067-2.26,0.636-3.06,2.936-3.019
		c14.55,0.261,29.074,1.036,43.601,1.81c1.62,0.086,2.283,0.699,2.357,2.279c0.507,10.95,1.824,8.92-7.575,8.548
		c-6.305-0.25-12.604-0.654-18.899-1.107c-2.1-0.151-2.884,0.374-2.797,2.658c0.289,7.587,0.412,15.183,0.467,22.775
		c0.016,2.009,0.697,2.629,2.693,2.719c8.225,0.368,16.438,0.965,24.66,1.36c2.062,0.099,3.047,0.732,2.798,2.931
		c-0.153,1.355-0.034,2.742-0.04,4.115c-0.016,4.1-0.018,4.167-4.248,4.021c-7.846-0.271-15.693-0.564-23.531-0.99
		c-2.203-0.12-2.828,0.566-2.723,2.74c0.435,8.862,0.771,17.73,1.008,26.6c0.051,1.872,1.043,2.057,2.416,2.123
		c7.948,0.383,15.896,0.784,23.845,1.153c4.612,0.214,4.61,0.192,4.661,4.854c0.022,2.012,0.09,4.024,0.076,6.036
		c-0.014,1.766,0.727,2.521,2.557,2.825c4.283,0.714,8.586,0.266,12.871,0.557c18.167,1.233,36.367,1.44,54.564,1.847
		c17.457,0.391,34.902,1.304,52.351,2.028c2.736,0.113,5.46,0.506,8.196,0.643c1.575,0.079,2.952,0.084,2.835,2.268
		c-0.125,2.333-1.932,1.622-3.074,1.62c-6.036-0.009-12.073-0.121-18.107-0.292c-24.42-0.692-48.835-1.532-73.257-2.047
		c-5.379-0.114-10.732-0.813-16.109-0.578c-6.473,0.284-12.895-0.627-19.348-0.656c-12.857-0.057-25.686-0.853-38.525-1.345
		c-13.647-0.523-27.301-0.895-40.947-1.436c-9.139-0.362-18.27-0.898-27.402-1.376c-0.633-0.033-1.255-0.236-1.885-0.342
		c-1.146-0.193-1.863-0.886-1.896-2.012c-0.038-1.354,1.056-1.554,2.096-1.646c4.115-0.363,8.226-0.08,12.341,0.066
		c2.529,0.09,5.065,0.017,7.818,0.017c-0.318-1.511-1.488-1.992-2.352-2.687c-9.676-7.788-18.422-16.367-24.654-27.309
		c-6.77-11.888-7.506-23.974-1.446-36.212c6.021-12.157,13.794-22.87,26.349-29.214c1.264-0.639,2.512-1.069,3.929-0.96
		c6.658,0.509,13.317,1.009,19.976,1.54c0.6,0.048,1.307-0.051,1.816,0.718c-1.665,1.557-3.746,2.495-5.654,3.675
		c-8.178,5.056-16.393,10.054-22.678,17.557c-7.014,8.372-11.713,17.456-9.422,28.894c1.398,6.98,4.534,13.105,8.719,18.754
		c5.599,7.56,12.454,13.864,20.145,19.185C356.371,106.949,367.658,109.831,377.302,108.496z"/>
	<path fill-rule="evenodd" clip-rule="evenodd" fill="#DD4401" d="M57.819,173.875c5.926-17.928,11-35.842,18.253-53.194
		c1.312,0.718,1.326,1.897,1.636,2.859c6.414,19.858,11.385,40.113,16.515,60.322c3.319,13.079,6.521,26.186,9.733,39.291
		c0.897,3.663,0.7,3.848-3.146,3.861c-3.843,0.014-7.69-0.109-11.527,0.036c-2.627,0.1-3.96-0.831-4.569-3.492
		c-2.692-11.77-5.578-23.495-8.326-35.252c-0.811-3.469-1.689-6.906-3.183-11.081c-6.281,19.843-13.136,38.694-20.073,57.657
		c-5.909-18.696-9.975-37.689-14.371-57.542c-1.224,3.107-2.254,5.442-3.073,7.848c-4.084,12.004-8.167,24.009-12.116,36.058
		c-0.788,2.404-2.078,3.391-4.559,3.351c-4.664-0.076-9.331,0.048-13.997,0.042c-3.327-0.004-3.386-0.056-2.495-3.16
		c3.055-10.644,6.878-21.031,10.745-31.395c5.399-14.474,10.898-28.912,16.505-43.307c3.349-8.599,6.98-17.088,10.503-25.619
		c0.263-0.639,0.311-1.63,1.225-1.624c0.977,0.004,0.876,1.042,1.083,1.677c4.275,13.174,8.102,26.476,11.358,39.941
		C54.969,165.403,56.135,169.613,57.819,173.875z"/>
	<path fill-rule="evenodd" clip-rule="evenodd" fill="#DD4401" d="M173.157,181.229c-0.384,6.279-0.021,16.437-0.128,26.589
		c-0.028,2.657-0.266,5.291-0.979,7.874c-1.618,5.859-5.425,9.797-10.7,12.553c-6.934,3.624-14.276,4.979-22.035,4.236
		c-0.091-0.009-0.186-0.034-0.273-0.019c-2.075,0.342-0.083-2.777-1.783-2.251c-0.891,0.276-0.892,2.009-2.706,1.84
		c-12.303-1.147-21.385-11.036-21.617-21.929c-0.458-21.514,0.672-42.973,1.416-64.446c0.352-10.167,6.918-17.295,18.167-20.283
		c5.882-1.563,11.727-1.427,17.83-0.447c5.78,0.927,10.926,2.654,15.701,5.879c5.52,3.729,8.3,8.83,8.096,15.539
		C173.829,156.694,173.557,167.026,173.157,181.229z M152.038,177.487c0.227,0,0.454,0,0.682,0c0-5.119-0.042-10.237,0.012-15.356
		c0.054-5.208,0.394-10.421,0.254-15.623c-0.142-5.278-4.104-8.81-9.481-8.939c-4.989-0.12-8.65,3.028-9.381,8.103
		c-0.221,1.536-0.404,3.081-0.534,4.628c-1.226,14.594-1.166,29.222-1.136,43.849c0.01,4.936-0.11,9.878,0.127,14.804
		c0.246,5.104,4.23,8.753,9.345,8.976c4.839,0.21,8.803-2.934,9.753-7.84c0.259-1.336,0.34-2.725,0.344-4.089
		C152.051,196.495,152.038,186.991,152.038,177.487z"/>
	<path fill-rule="evenodd" clip-rule="evenodd" fill="#DD4401" d="M249.561,174.328c0,12.167-0.061,24.333,0.017,36.499
		c0.083,13.045-6.975,19.73-18.372,22.515c-9.819,2.399-19.568,0.9-28.627-3.404c-8.481-4.029-11.604-11.707-11.511-20.594
		c0.153-14.724,0.716-29.444,1.121-44.165c0.299-10.882,0.687-21.762,0.88-32.646c0.04-2.228,0.766-2.905,2.881-2.708
		c4.821,0.449,9.648,0.882,14.484,1.118c2.244,0.11,2.644,1.162,2.65,3.127c0.054,16.654-0.283,33.303-0.553,49.953
		c-0.133,8.233-0.102,16.469-0.068,24.704c0.015,3.597,0.885,6.917,3.965,9.224c2.895,2.168,6.026,2.526,9.303,0.99
		c3.14-1.471,4.635-4.062,4.656-7.469c0.072-11.986,0.057-23.973,0.156-35.959c0.115-13.904,0.353-27.809,0.438-41.713
		c0.014-2.211,0.783-2.858,2.919-2.69c4.01,0.314,8.036,0.546,12.055,0.548c2.35,0.001,3.113,0.726,3.143,3.154
		c0.16,13.172,0.507,26.342,0.79,39.513C249.778,174.326,249.67,174.327,249.561,174.328z"/>
	<path fill-rule="evenodd" clip-rule="evenodd" fill="#DD4401" d="M515.012,212.031c0.353,8.685,0.646,17.373,1.098,26.053
		c0.122,2.341-0.692,3.077-2.952,2.92c-4.013-0.277-8.04-0.52-12.059-0.483c-2.411,0.022-3.142-0.951-3.329-3.193
		c-1.185-14.128-2.618-28.237-3.683-42.373c-1.072-14.231-2.355-28.452-2.833-42.723c-0.141-4.206-0.137-8.417-0.165-12.625
		c-0.004-0.589-0.316-1.406,0.458-1.699c0.712-0.27,1.146,0.409,1.577,0.852c10.028,10.281,20.412,20.213,30.02,30.905
		c1.282,1.428,2.568,3.993,4.639,3.225c1.96-0.727,0.695-3.307,0.675-5.024c-0.091-7.684-0.31-15.367-0.603-23.046
		c-0.075-1.968,0.564-2.7,2.486-2.362c3.995,0.703,8.034,0.508,12.051,0.407c2.214-0.057,3.02,0.687,3.248,2.908
		c1.578,15.379,3.155,30.756,4.195,46.185c0.995,14.776,2.117,29.543,3.18,44.315c0.033,0.456,0.035,0.914,0.041,1.371
		c0.049,3.739-0.173,3.873-3.824,3.6c-3.556-0.266-7.124-0.394-10.688-0.499c-4.349-0.128-4.399-0.116-4.812-4.379
		c-1.151-11.928-2.344-23.852-3.39-35.789c-0.294-3.346-1.101-6.005-4.201-8.024c-3.271-2.13-6.051-5.007-9.109-7.479
		c-0.788-0.637-1.559-1.989-2.696-1.365c-0.924,0.505-0.446,1.854-0.409,2.819c0.327,8.502,0.699,17.003,1.058,25.505
		C514.993,212.032,515.003,212.031,515.012,212.031z"/>
	<path fill-rule="evenodd" clip-rule="evenodd" fill="#DD4401" d="M407.566,129.131c1.771,4.468,3.617,8.908,5.302,13.409
		c11.283,30.154,22.055,60.492,32.554,90.928c0.208,0.605,0.354,1.233,0.585,1.828c0.728,1.878-0.036,2.459-1.885,2.431
		c-4.483-0.07-8.97-0.072-13.454-0.027c-1.932,0.019-2.973-0.769-3.555-2.661c-3.707-12.063-7.51-24.098-11.262-36.146
		c-1.248-4.008-2.44-8.033-3.672-12.096c-2.992,8.331-4.431,17.075-6.799,25.57c-1.904,6.834-3.758,13.685-5.467,20.57
		c-0.603,2.431-1.815,3.28-4.256,3.043c-4.097-0.398-8.211-0.778-12.32-0.803c-2.709-0.016-2.903-1.083-2.371-3.288
		c2.938-12.185,5.713-24.411,8.699-36.583c3.663-14.926,7.531-29.801,11.209-44.723c1.762-7.148,4.404-14.036,5.862-21.264
		C407.014,129.256,407.29,129.193,407.566,129.131z"/>
	<path fill-rule="evenodd" clip-rule="evenodd" fill="#DD4401" d="M473.949,214.079c0.338,7.973,0.56,14.922,0.965,21.86
		c0.136,2.321-0.68,3.062-2.921,2.943c-4.019-0.213-8.046-0.338-12.069-0.308c-2.497,0.019-3.242-1.078-3.402-3.451
		c-1.33-19.618-2.785-39.227-4.168-58.841c-0.804-11.404-1.488-22.816-2.357-34.215c-0.182-2.367,0.547-3.198,2.835-2.868
		c4.454,0.644,8.944,0.492,13.423,0.453c1.732-0.016,2.424,0.642,2.558,2.375c1.123,14.499,2.583,28.972,3.378,43.498
		C472.729,195.389,473.4,205.245,473.949,214.079z"/>
</g>
</svg>
